<svg width="44" height="44" viewBox="0 0 44 44" fill="none" xmlns="http://www.w3.org/2000/svg">
<mask id="path-1-inside-1_423_1499" fill="white">
<path d="M37.125 0H6.875C3.08413 0 0 3.08413 0 6.875V37.125C0 40.9159 3.08413 44 6.875 44H37.125C40.9159 44 44 40.9159 44 37.125V6.875C44 3.08413 40.9159 0 37.125 0ZM41.25 37.125C41.25 39.3993 39.3993 41.25 37.125 41.25H6.875C4.60075 41.25 2.75 39.3993 2.75 37.125V6.875C2.75 4.60075 4.60075 2.75 6.875 2.75H37.125C39.3993 2.75 41.25 4.60075 41.25 6.875V37.125ZM20.625 13.75C20.625 14.509 20.009 15.125 19.25 15.125H15.8125V18.5625C15.8125 19.3215 15.1965 19.9375 14.4375 19.9375C13.6785 19.9375 13.0625 19.3215 13.0625 18.5625V15.125H9.625C8.866 15.125 8.25 14.509 8.25 13.75C8.25 12.991 8.866 12.375 9.625 12.375H13.0625V8.9375C13.0625 8.1785 13.6785 7.5625 14.4375 7.5625C15.1965 7.5625 15.8125 8.1785 15.8125 8.9375V12.375H19.25C20.009 12.375 20.625 12.991 20.625 13.75ZM35.75 13.75C35.75 14.509 35.134 15.125 34.375 15.125H24.75C23.991 15.125 23.375 14.509 23.375 13.75C23.375 12.991 23.991 12.375 24.75 12.375H34.375C35.134 12.375 35.75 12.991 35.75 13.75ZM35.75 31.625C35.75 32.384 35.134 33 34.375 33H24.75C23.991 33 23.375 32.384 23.375 31.625C23.375 30.866 23.991 30.25 24.75 30.25H34.375C35.134 30.25 35.75 30.866 35.75 31.625ZM35.75 26.125C35.75 26.884 35.134 27.5 34.375 27.5H24.75C23.991 27.5 23.375 26.884 23.375 26.125C23.375 25.366 23.991 24.75 24.75 24.75H34.375C35.134 24.75 35.75 25.366 35.75 26.125ZM18.8127 26.444L16.3818 28.875L18.8127 31.306C19.3504 31.845 19.3504 32.7126 18.8127 33.2502C18.2751 33.7879 17.4048 33.7892 16.8685 33.2502L14.4375 30.8193L12.0065 33.2502C11.4702 33.7892 10.5999 33.7879 10.0623 33.2502C9.52463 32.7126 9.52463 31.845 10.0623 31.306L12.4932 28.875L10.0623 26.444C9.52463 25.905 9.52463 25.0374 10.0623 24.4998C10.5999 23.9608 11.4689 23.9608 12.0065 24.4998L14.4375 26.9307L16.8685 24.4998C17.4061 23.9608 18.2751 23.9608 18.8127 24.4998C19.3504 25.0374 19.3504 25.9064 18.8127 26.444Z"/>
</mask>
<path d="M37.125 0H6.875C3.08413 0 0 3.08413 0 6.875V37.125C0 40.9159 3.08413 44 6.875 44H37.125C40.9159 44 44 40.9159 44 37.125V6.875C44 3.08413 40.9159 0 37.125 0ZM41.25 37.125C41.25 39.3993 39.3993 41.25 37.125 41.25H6.875C4.60075 41.25 2.75 39.3993 2.75 37.125V6.875C2.75 4.60075 4.60075 2.75 6.875 2.75H37.125C39.3993 2.75 41.25 4.60075 41.25 6.875V37.125ZM20.625 13.75C20.625 14.509 20.009 15.125 19.25 15.125H15.8125V18.5625C15.8125 19.3215 15.1965 19.9375 14.4375 19.9375C13.6785 19.9375 13.0625 19.3215 13.0625 18.5625V15.125H9.625C8.866 15.125 8.25 14.509 8.25 13.75C8.25 12.991 8.866 12.375 9.625 12.375H13.0625V8.9375C13.0625 8.1785 13.6785 7.5625 14.4375 7.5625C15.1965 7.5625 15.8125 8.1785 15.8125 8.9375V12.375H19.25C20.009 12.375 20.625 12.991 20.625 13.75ZM35.75 13.75C35.75 14.509 35.134 15.125 34.375 15.125H24.75C23.991 15.125 23.375 14.509 23.375 13.75C23.375 12.991 23.991 12.375 24.75 12.375H34.375C35.134 12.375 35.75 12.991 35.75 13.75ZM35.75 31.625C35.75 32.384 35.134 33 34.375 33H24.75C23.991 33 23.375 32.384 23.375 31.625C23.375 30.866 23.991 30.25 24.75 30.25H34.375C35.134 30.25 35.75 30.866 35.75 31.625ZM35.75 26.125C35.75 26.884 35.134 27.5 34.375 27.5H24.75C23.991 27.5 23.375 26.884 23.375 26.125C23.375 25.366 23.991 24.75 24.75 24.75H34.375C35.134 24.75 35.75 25.366 35.75 26.125ZM18.8127 26.444L16.3818 28.875L18.8127 31.306C19.3504 31.845 19.3504 32.7126 18.8127 33.2502C18.2751 33.7879 17.4048 33.7892 16.8685 33.2502L14.4375 30.8193L12.0065 33.2502C11.4702 33.7892 10.5999 33.7879 10.0623 33.2502C9.52463 32.7126 9.52463 31.845 10.0623 31.306L12.4932 28.875L10.0623 26.444C9.52463 25.905 9.52463 25.0374 10.0623 24.4998C10.5999 23.9608 11.4689 23.9608 12.0065 24.4998L14.4375 26.9307L16.8685 24.4998C17.4061 23.9608 18.2751 23.9608 18.8127 24.4998C19.3504 25.0374 19.3504 25.9064 18.8127 26.444Z" fill="#FDF1E6" stroke="#A04A4A" stroke-width="1.2" mask="url(#path-1-inside-1_423_1499)"/>
</svg>
