<svg width="22" height="22" viewBox="0 0 22 22" fill="none" xmlns="http://www.w3.org/2000/svg">
<path d="M22 8.16129C22 3.66194 18.3381 0 13.8387 0C13.1752 0 12.5506 0.259032 12.0823 0.727419L1.14258 11.6671C0.404516 12.4052 0 13.3845 0 14.4277V18.8065C0 20.5665 1.43355 22 3.19355 22H7.57226C8.61548 22 9.59484 21.5955 10.3329 20.8574L21.2726 9.91774C21.741 9.44936 22 8.82484 22 8.16129ZM8.82839 19.3529C8.49129 19.6865 8.04774 19.871 7.57226 19.871H3.19355C2.60806 19.871 2.12903 19.3919 2.12903 18.8065V14.4277C2.12903 13.9452 2.31 13.5123 2.65064 13.1716L9.82194 6.00032L15.9997 12.1781L8.82839 19.3494V19.3529ZM19.871 8.31032L17.5042 10.6771L11.3265 4.49935L13.6932 2.13258H13.8387C17.1635 2.13258 19.871 4.84 19.871 8.16484V8.31032Z" fill="#FFF7EF"/>
</svg>
