<svg width="24" height="22" viewBox="0 0 24 22" fill="none" xmlns="http://www.w3.org/2000/svg">
<path d="M11.7797 20.7919L11.7808 20.7925C11.8797 20.8428 11.9891 20.869 12.1 20.869C12.2109 20.869 12.3203 20.8428 12.4192 20.7925L12.4203 20.7919C14.2737 19.8356 16.9785 18.1857 19.2486 15.9558C21.5157 13.7288 23.4 10.8787 23.4 7.55909C23.4 4.01096 20.8008 0.8 16.8932 0.8C14.6921 0.8 13.1955 1.87401 12.1 3.33268C11.0045 1.87401 9.50789 0.8 7.30682 0.8C3.39919 0.8 0.8 4.01096 0.8 7.55909C0.8 10.8787 2.68426 13.7288 4.95139 15.9558L5.09155 15.8132L4.95139 15.9558C7.22146 18.1857 9.92629 19.8356 11.7797 20.7919Z" fill="#A04A4A" stroke="#A04A4A" stroke-width="0.4"/>
</svg>
