<svg width="60" height="46" viewBox="0 0 60 46" fill="none" xmlns="http://www.w3.org/2000/svg">
<mask id="path-1-inside-1_423_1495" fill="white">
<path d="M59.9603 14.2653C59.9569 12.6154 59.4863 11.0003 58.603 9.60685C57.7196 8.2134 56.4597 7.09862 54.9691 6.39155V4.28275C54.9691 3.28992 54.5747 2.33777 53.8727 1.63574C53.1706 0.933704 52.2185 0.539307 51.2257 0.539307C50.2328 0.539307 49.2807 0.933704 48.5786 1.63574C47.8766 2.33777 47.4822 3.28992 47.4822 4.28275V6.39155C45.9916 7.09862 44.7317 8.2134 43.8483 9.60685C42.965 11.0003 42.4944 12.6154 42.491 14.2653C42.491 18.2083 42.0917 21.1657 44.9866 24.1355C44.9866 24.3226 44.9866 23.4616 44.9866 27.1676L42.8154 28.1035C41.4802 26.7434 40.769 26.6061 36.2519 24.672V21.7521C36.2519 21.3903 38.7475 19.5185 38.7475 15.5131V12.0441C40.2823 10.6591 39.9953 9.11178 39.9953 6.77837C39.995 5.97531 39.7365 5.19363 39.2579 4.54877C38.7793 3.9039 38.106 3.43004 37.3375 3.19715C37.1046 2.4286 36.6307 1.75531 35.9859 1.27672C35.341 0.798126 34.5593 0.539596 33.7563 0.539307H23.7738C22.7809 0.539307 21.8288 0.933704 21.1267 1.63574C20.4247 2.33777 20.0303 3.28992 20.0303 4.28275C20.0303 9.19913 19.6684 10.5842 21.2781 12.0441V15.5131C21.2781 19.5435 23.7738 21.3778 23.7738 21.7521V24.672C19.6061 26.4564 18.5828 26.706 17.2103 28.1035L15.0391 27.1676C15.1164 26.1584 15.1164 25.1447 15.0391 24.1355C17.9714 21.1657 17.5347 18.1335 17.5347 14.2653C17.5313 12.6154 17.0606 11.0003 16.1773 9.60685C15.294 8.2134 14.0341 7.09862 12.5434 6.39155V4.28275C12.5434 3.28992 12.149 2.33777 11.447 1.63574C10.745 0.933704 9.79281 0.539307 8.79999 0.539307C7.80717 0.539307 6.85501 0.933704 6.15298 1.63574C5.45095 2.33777 5.05655 3.28992 5.05655 4.28275V6.39155C3.56591 7.09862 2.306 8.2134 1.42268 9.60685C0.539349 11.0003 0.0687302 12.6154 0.0652979 14.2653C0.0652979 18.2707 -0.334002 21.1657 2.56092 24.1355C2.56092 24.3226 2.56092 23.4741 2.56092 27.1676C0.664248 27.9787 0.0652979 28.091 0.0652979 29.0643V44.2128C0.0652979 44.5437 0.196764 44.8611 0.430774 45.0951C0.664784 45.3291 0.982171 45.4606 1.31311 45.4606H58.7125C59.0435 45.4606 59.3609 45.3291 59.5949 45.0951C59.8289 44.8611 59.9603 44.5437 59.9603 44.2128C59.9603 28.0786 60.2598 28.378 59.2117 27.9163L57.4647 27.1676V24.2478C57.4647 23.8859 59.9603 22.0142 59.9603 18.0087V14.2653ZM49.9778 4.28275C49.9778 3.95181 50.1093 3.63442 50.3433 3.40041C50.5773 3.1664 50.8947 3.03493 51.2257 3.03493C51.5566 3.03493 51.874 3.1664 52.108 3.40041C52.342 3.63442 52.4735 3.95181 52.4735 4.28275V5.63039C49.4538 5.19365 49.9778 6.46642 49.9778 4.28275ZM57.3399 13.0174C54.4201 13.0174 52.0118 13.292 49.616 10.8837C49.3889 10.6609 49.0852 10.5332 48.7671 10.5269C48.449 10.5205 48.1405 10.6359 47.9046 10.8494C47.6688 11.063 47.5234 11.3585 47.4982 11.6757C47.4731 11.9929 47.57 12.3077 47.7692 12.5558C46.9088 12.808 46.02 12.9506 45.1238 12.98C45.4204 11.5771 46.1912 10.3192 47.3064 9.41795C48.4216 8.51668 49.8132 8.02705 51.2471 8.03144C52.681 8.03583 54.0696 8.53399 55.1793 9.44208C56.2889 10.3502 57.052 11.6128 57.3399 13.0174ZM42.491 33.3568V42.965H31.9095L38.2234 28.2283L39.4712 28.7648C40.3687 29.1507 41.1333 29.7915 41.67 30.6078C42.2068 31.424 42.4922 32.3799 42.491 33.3568ZM33.7563 23.3743V24.8717L30.0128 27.6792L26.2694 24.8717V23.3868C27.436 23.9531 28.716 24.2473 30.0128 24.2473C31.3097 24.2473 32.5896 23.9531 33.7563 23.3868V23.3743ZM33.7563 32.1963L31.7598 29.4886L35.1788 26.9306L35.9275 27.2425L33.7563 32.1963ZM24.8094 26.9181L28.2659 29.4886L26.2694 32.2088L24.1356 27.2176L24.8094 26.9181ZM30.0128 31.3229L32.6707 34.8542L30.0128 41.0932L27.355 34.8542L30.0128 31.3229ZM22.5259 4.28275C22.5259 3.95181 22.6574 3.63442 22.8914 3.40041C23.1254 3.1664 23.4428 3.03493 23.7738 3.03493H33.7563C34.0872 3.03493 34.4046 3.1664 34.6386 3.40041C34.8726 3.63442 35.0041 3.95181 35.0041 4.28275C35.0041 4.61369 35.1355 4.93107 35.3695 5.16508C35.6036 5.39909 35.9209 5.53056 36.2519 5.53056C36.5828 5.53056 36.9002 5.66203 37.1342 5.89604C37.3682 6.13005 37.4997 6.44743 37.4997 6.77837V9.274C37.4997 9.60494 37.3682 9.92233 37.1342 10.1563C36.9002 10.3903 36.5828 10.5218 36.2519 10.5218C34.0932 10.5218 33.1448 10.6466 32.1216 10.1724L33.3694 8.92461C33.6044 8.68965 33.7364 8.37096 33.7364 8.03867C33.7364 7.70637 33.6044 7.38769 33.3694 7.15272C33.1345 6.91775 32.8158 6.78575 32.4835 6.78575C32.1512 6.78575 31.8325 6.91775 31.5975 7.15272C27.8541 10.8962 28.6277 10.5343 23.7488 10.5343C23.4179 10.5343 23.1005 10.4028 22.8665 10.1688C22.6325 9.93481 22.501 9.61742 22.501 9.28648L22.5259 4.28275ZM23.7738 13.0174C26.494 13.0174 28.216 13.267 30.1376 11.9818C32.5459 13.2296 32.6332 13.0174 36.2519 13.0174V15.5131C36.2519 17.1678 35.5946 18.7547 34.4245 19.9248C33.2545 21.0948 31.6675 21.7521 30.0128 21.7521C28.3581 21.7521 26.7712 21.0948 25.6011 19.9248C24.4311 18.7547 23.7738 17.1678 23.7738 15.5131V13.0174ZM20.5544 28.7648L21.8022 28.2283L28.1161 42.965H17.5347V33.3568C17.5334 32.3799 17.8188 31.424 18.3556 30.6078C18.8924 29.7915 19.6569 29.1507 20.5544 28.7648ZM7.55218 4.28275C7.55218 3.95181 7.68364 3.63442 7.91765 3.40041C8.15167 3.1664 8.46905 3.03493 8.79999 3.03493C9.13093 3.03493 9.44832 3.1664 9.68233 3.40041C9.91634 3.63442 10.0478 3.95181 10.0478 4.28275V5.63039C7.0281 5.19365 7.55218 6.46642 7.55218 4.28275ZM14.9018 13.0174C14.0057 12.988 13.1168 12.8455 12.2564 12.5932C12.4557 12.3451 12.5526 12.0303 12.5274 11.7131C12.5022 11.396 12.3569 11.1004 12.121 10.8869C11.8852 10.6733 11.5766 10.5579 11.2585 10.5643C10.9404 10.5707 10.6368 10.6983 10.4097 10.9211C7.91405 13.4167 5.28116 13.0549 2.68571 13.0549C2.97368 11.6502 3.7367 10.3876 4.84638 9.47951C5.95606 8.57142 7.34466 8.07327 8.77853 8.06887C10.2124 8.06448 11.604 8.55411 12.7193 9.45539C13.8345 10.3567 14.6052 11.6146 14.9018 13.0174ZM2.56092 15.5131C5.4309 15.5131 7.37748 15.7252 9.92302 14.3401C11.5342 15.0651 13.273 15.4638 15.0391 15.5131V18.0087C15.0391 19.6634 14.3817 21.2503 13.2117 22.4204C12.0416 23.5904 10.4547 24.2478 8.79999 24.2478C7.14529 24.2478 5.55836 23.5904 4.38831 22.4204C3.21825 21.2503 2.56092 19.6634 2.56092 18.0087V15.5131ZM5.05655 25.8824C6.22321 26.4487 7.50315 26.7429 8.79999 26.7429C10.0968 26.7429 11.3768 26.4487 12.5434 25.8824C12.5434 29.3139 12.1566 28.6401 15.7378 30.1874C15.2777 31.1762 15.0393 32.2537 15.0391 33.3443C14.0359 32.9593 12.9428 32.8722 11.8914 33.0936C10.8399 33.315 9.87473 33.8353 9.11195 34.5921C8.71265 34.9914 8.88734 34.9914 8.48804 34.5921C7.7244 33.8367 6.75927 33.3172 5.70813 33.0959C4.65698 32.8746 3.56434 32.9609 2.56092 33.3443V29.8879C5.36851 28.6775 5.05655 29.239 5.05655 25.8824ZM2.56092 36.1519C3.1724 35.6965 3.92566 35.4728 4.68659 35.5208C5.44753 35.5688 6.16673 35.8853 6.71614 36.4139L7.96396 37.6618C8.07996 37.7787 8.21797 37.8715 8.37002 37.9349C8.52208 37.9982 8.68518 38.0309 8.84991 38.0309C9.01463 38.0309 9.17773 37.9982 9.32978 37.9349C9.48184 37.8715 9.61985 37.7787 9.73585 37.6618L10.9837 36.4139C11.5295 35.8778 12.2508 35.5572 13.0146 35.5114C13.7783 35.4655 14.5328 35.6974 15.1389 36.1644V42.965H2.56092V36.1519ZM44.9866 42.965V36.1519C45.5981 35.6965 46.3513 35.4728 47.1123 35.5208C47.8732 35.5688 48.5924 35.8853 49.1418 36.4139C50.3896 37.6618 50.5768 37.9737 51.2257 37.9737C51.8745 37.9737 52.1241 37.5869 53.3095 36.4139C53.8589 35.8853 54.5781 35.5688 55.339 35.5208C56.1 35.4728 56.8532 35.6965 57.4647 36.1519V42.965H44.9866ZM57.4647 33.3318C56.4606 32.953 55.3691 32.8692 54.319 33.0903C53.2688 33.3114 52.3038 33.8282 51.5376 34.5797C51.1383 34.979 51.313 34.979 50.9137 34.5797C50.1492 33.8255 49.1841 33.307 48.1333 33.0858C47.0825 32.8645 45.9902 32.9499 44.9866 33.3318C44.9864 32.2412 44.7479 31.1637 44.2878 30.1749C47.9189 28.6151 47.4822 29.2889 47.4822 25.8699C48.6489 26.4362 49.9288 26.7305 51.2257 26.7305C52.5225 26.7305 53.8024 26.4362 54.9691 25.8699C54.9691 29.2016 54.6696 28.6775 57.4647 29.8754V33.3318ZM57.4647 18.0087C57.4647 19.6634 56.8074 21.2503 55.6373 22.4204C54.4673 23.5904 52.8804 24.2478 51.2257 24.2478C49.5709 24.2478 47.984 23.5904 46.814 22.4204C45.6439 21.2503 44.9866 19.6634 44.9866 18.0087V15.5131C46.7565 15.4622 48.499 15.0636 50.1151 14.3401C52.6856 15.7252 54.6197 15.5131 57.4647 15.5131V18.0087Z"/>
</mask>
<path d="M59.9603 14.2653C59.9569 12.6154 59.4863 11.0003 58.603 9.60685C57.7196 8.2134 56.4597 7.09862 54.9691 6.39155V4.28275C54.9691 3.28992 54.5747 2.33777 53.8727 1.63574C53.1706 0.933704 52.2185 0.539307 51.2257 0.539307C50.2328 0.539307 49.2807 0.933704 48.5786 1.63574C47.8766 2.33777 47.4822 3.28992 47.4822 4.28275V6.39155C45.9916 7.09862 44.7317 8.2134 43.8483 9.60685C42.965 11.0003 42.4944 12.6154 42.491 14.2653C42.491 18.2083 42.0917 21.1657 44.9866 24.1355C44.9866 24.3226 44.9866 23.4616 44.9866 27.1676L42.8154 28.1035C41.4802 26.7434 40.769 26.6061 36.2519 24.672V21.7521C36.2519 21.3903 38.7475 19.5185 38.7475 15.5131V12.0441C40.2823 10.6591 39.9953 9.11178 39.9953 6.77837C39.995 5.97531 39.7365 5.19363 39.2579 4.54877C38.7793 3.9039 38.106 3.43004 37.3375 3.19715C37.1046 2.4286 36.6307 1.75531 35.9859 1.27672C35.341 0.798126 34.5593 0.539596 33.7563 0.539307H23.7738C22.7809 0.539307 21.8288 0.933704 21.1267 1.63574C20.4247 2.33777 20.0303 3.28992 20.0303 4.28275C20.0303 9.19913 19.6684 10.5842 21.2781 12.0441V15.5131C21.2781 19.5435 23.7738 21.3778 23.7738 21.7521V24.672C19.6061 26.4564 18.5828 26.706 17.2103 28.1035L15.0391 27.1676C15.1164 26.1584 15.1164 25.1447 15.0391 24.1355C17.9714 21.1657 17.5347 18.1335 17.5347 14.2653C17.5313 12.6154 17.0606 11.0003 16.1773 9.60685C15.294 8.2134 14.0341 7.09862 12.5434 6.39155V4.28275C12.5434 3.28992 12.149 2.33777 11.447 1.63574C10.745 0.933704 9.79281 0.539307 8.79999 0.539307C7.80717 0.539307 6.85501 0.933704 6.15298 1.63574C5.45095 2.33777 5.05655 3.28992 5.05655 4.28275V6.39155C3.56591 7.09862 2.306 8.2134 1.42268 9.60685C0.539349 11.0003 0.0687302 12.6154 0.0652979 14.2653C0.0652979 18.2707 -0.334002 21.1657 2.56092 24.1355C2.56092 24.3226 2.56092 23.4741 2.56092 27.1676C0.664248 27.9787 0.0652979 28.091 0.0652979 29.0643V44.2128C0.0652979 44.5437 0.196764 44.8611 0.430774 45.0951C0.664784 45.3291 0.982171 45.4606 1.31311 45.4606H58.7125C59.0435 45.4606 59.3609 45.3291 59.5949 45.0951C59.8289 44.8611 59.9603 44.5437 59.9603 44.2128C59.9603 28.0786 60.2598 28.378 59.2117 27.9163L57.4647 27.1676V24.2478C57.4647 23.8859 59.9603 22.0142 59.9603 18.0087V14.2653ZM49.9778 4.28275C49.9778 3.95181 50.1093 3.63442 50.3433 3.40041C50.5773 3.1664 50.8947 3.03493 51.2257 3.03493C51.5566 3.03493 51.874 3.1664 52.108 3.40041C52.342 3.63442 52.4735 3.95181 52.4735 4.28275V5.63039C49.4538 5.19365 49.9778 6.46642 49.9778 4.28275ZM57.3399 13.0174C54.4201 13.0174 52.0118 13.292 49.616 10.8837C49.3889 10.6609 49.0852 10.5332 48.7671 10.5269C48.449 10.5205 48.1405 10.6359 47.9046 10.8494C47.6688 11.063 47.5234 11.3585 47.4982 11.6757C47.4731 11.9929 47.57 12.3077 47.7692 12.5558C46.9088 12.808 46.02 12.9506 45.1238 12.98C45.4204 11.5771 46.1912 10.3192 47.3064 9.41795C48.4216 8.51668 49.8132 8.02705 51.2471 8.03144C52.681 8.03583 54.0696 8.53399 55.1793 9.44208C56.2889 10.3502 57.052 11.6128 57.3399 13.0174ZM42.491 33.3568V42.965H31.9095L38.2234 28.2283L39.4712 28.7648C40.3687 29.1507 41.1333 29.7915 41.67 30.6078C42.2068 31.424 42.4922 32.3799 42.491 33.3568ZM33.7563 23.3743V24.8717L30.0128 27.6792L26.2694 24.8717V23.3868C27.436 23.9531 28.716 24.2473 30.0128 24.2473C31.3097 24.2473 32.5896 23.9531 33.7563 23.3868V23.3743ZM33.7563 32.1963L31.7598 29.4886L35.1788 26.9306L35.9275 27.2425L33.7563 32.1963ZM24.8094 26.9181L28.2659 29.4886L26.2694 32.2088L24.1356 27.2176L24.8094 26.9181ZM30.0128 31.3229L32.6707 34.8542L30.0128 41.0932L27.355 34.8542L30.0128 31.3229ZM22.5259 4.28275C22.5259 3.95181 22.6574 3.63442 22.8914 3.40041C23.1254 3.1664 23.4428 3.03493 23.7738 3.03493H33.7563C34.0872 3.03493 34.4046 3.1664 34.6386 3.40041C34.8726 3.63442 35.0041 3.95181 35.0041 4.28275C35.0041 4.61369 35.1355 4.93107 35.3695 5.16508C35.6036 5.39909 35.9209 5.53056 36.2519 5.53056C36.5828 5.53056 36.9002 5.66203 37.1342 5.89604C37.3682 6.13005 37.4997 6.44743 37.4997 6.77837V9.274C37.4997 9.60494 37.3682 9.92233 37.1342 10.1563C36.9002 10.3903 36.5828 10.5218 36.2519 10.5218C34.0932 10.5218 33.1448 10.6466 32.1216 10.1724L33.3694 8.92461C33.6044 8.68965 33.7364 8.37096 33.7364 8.03867C33.7364 7.70637 33.6044 7.38769 33.3694 7.15272C33.1345 6.91775 32.8158 6.78575 32.4835 6.78575C32.1512 6.78575 31.8325 6.91775 31.5975 7.15272C27.8541 10.8962 28.6277 10.5343 23.7488 10.5343C23.4179 10.5343 23.1005 10.4028 22.8665 10.1688C22.6325 9.93481 22.501 9.61742 22.501 9.28648L22.5259 4.28275ZM23.7738 13.0174C26.494 13.0174 28.216 13.267 30.1376 11.9818C32.5459 13.2296 32.6332 13.0174 36.2519 13.0174V15.5131C36.2519 17.1678 35.5946 18.7547 34.4245 19.9248C33.2545 21.0948 31.6675 21.7521 30.0128 21.7521C28.3581 21.7521 26.7712 21.0948 25.6011 19.9248C24.4311 18.7547 23.7738 17.1678 23.7738 15.5131V13.0174ZM20.5544 28.7648L21.8022 28.2283L28.1161 42.965H17.5347V33.3568C17.5334 32.3799 17.8188 31.424 18.3556 30.6078C18.8924 29.7915 19.6569 29.1507 20.5544 28.7648ZM7.55218 4.28275C7.55218 3.95181 7.68364 3.63442 7.91765 3.40041C8.15167 3.1664 8.46905 3.03493 8.79999 3.03493C9.13093 3.03493 9.44832 3.1664 9.68233 3.40041C9.91634 3.63442 10.0478 3.95181 10.0478 4.28275V5.63039C7.0281 5.19365 7.55218 6.46642 7.55218 4.28275ZM14.9018 13.0174C14.0057 12.988 13.1168 12.8455 12.2564 12.5932C12.4557 12.3451 12.5526 12.0303 12.5274 11.7131C12.5022 11.396 12.3569 11.1004 12.121 10.8869C11.8852 10.6733 11.5766 10.5579 11.2585 10.5643C10.9404 10.5707 10.6368 10.6983 10.4097 10.9211C7.91405 13.4167 5.28116 13.0549 2.68571 13.0549C2.97368 11.6502 3.7367 10.3876 4.84638 9.47951C5.95606 8.57142 7.34466 8.07327 8.77853 8.06887C10.2124 8.06448 11.604 8.55411 12.7193 9.45539C13.8345 10.3567 14.6052 11.6146 14.9018 13.0174ZM2.56092 15.5131C5.4309 15.5131 7.37748 15.7252 9.92302 14.3401C11.5342 15.0651 13.273 15.4638 15.0391 15.5131V18.0087C15.0391 19.6634 14.3817 21.2503 13.2117 22.4204C12.0416 23.5904 10.4547 24.2478 8.79999 24.2478C7.14529 24.2478 5.55836 23.5904 4.38831 22.4204C3.21825 21.2503 2.56092 19.6634 2.56092 18.0087V15.5131ZM5.05655 25.8824C6.22321 26.4487 7.50315 26.7429 8.79999 26.7429C10.0968 26.7429 11.3768 26.4487 12.5434 25.8824C12.5434 29.3139 12.1566 28.6401 15.7378 30.1874C15.2777 31.1762 15.0393 32.2537 15.0391 33.3443C14.0359 32.9593 12.9428 32.8722 11.8914 33.0936C10.8399 33.315 9.87473 33.8353 9.11195 34.5921C8.71265 34.9914 8.88734 34.9914 8.48804 34.5921C7.7244 33.8367 6.75927 33.3172 5.70813 33.0959C4.65698 32.8746 3.56434 32.9609 2.56092 33.3443V29.8879C5.36851 28.6775 5.05655 29.239 5.05655 25.8824ZM2.56092 36.1519C3.1724 35.6965 3.92566 35.4728 4.68659 35.5208C5.44753 35.5688 6.16673 35.8853 6.71614 36.4139L7.96396 37.6618C8.07996 37.7787 8.21797 37.8715 8.37002 37.9349C8.52208 37.9982 8.68518 38.0309 8.84991 38.0309C9.01463 38.0309 9.17773 37.9982 9.32978 37.9349C9.48184 37.8715 9.61985 37.7787 9.73585 37.6618L10.9837 36.4139C11.5295 35.8778 12.2508 35.5572 13.0146 35.5114C13.7783 35.4655 14.5328 35.6974 15.1389 36.1644V42.965H2.56092V36.1519ZM44.9866 42.965V36.1519C45.5981 35.6965 46.3513 35.4728 47.1123 35.5208C47.8732 35.5688 48.5924 35.8853 49.1418 36.4139C50.3896 37.6618 50.5768 37.9737 51.2257 37.9737C51.8745 37.9737 52.1241 37.5869 53.3095 36.4139C53.8589 35.8853 54.5781 35.5688 55.339 35.5208C56.1 35.4728 56.8532 35.6965 57.4647 36.1519V42.965H44.9866ZM57.4647 33.3318C56.4606 32.953 55.3691 32.8692 54.319 33.0903C53.2688 33.3114 52.3038 33.8282 51.5376 34.5797C51.1383 34.979 51.313 34.979 50.9137 34.5797C50.1492 33.8255 49.1841 33.307 48.1333 33.0858C47.0825 32.8645 45.9902 32.9499 44.9866 33.3318C44.9864 32.2412 44.7479 31.1637 44.2878 30.1749C47.9189 28.6151 47.4822 29.2889 47.4822 25.8699C48.6489 26.4362 49.9288 26.7305 51.2257 26.7305C52.5225 26.7305 53.8024 26.4362 54.9691 25.8699C54.9691 29.2016 54.6696 28.6775 57.4647 29.8754V33.3318ZM57.4647 18.0087C57.4647 19.6634 56.8074 21.2503 55.6373 22.4204C54.4673 23.5904 52.8804 24.2478 51.2257 24.2478C49.5709 24.2478 47.984 23.5904 46.814 22.4204C45.6439 21.2503 44.9866 19.6634 44.9866 18.0087V15.5131C46.7565 15.4622 48.499 15.0636 50.1151 14.3401C52.6856 15.7252 54.6197 15.5131 57.4647 15.5131V18.0087Z" fill="#FDF1E6" stroke="#A04A4A" stroke-width="1.2" mask="url(#path-1-inside-1_423_1495)"/>
</svg>
