<svg width="24" height="22" viewBox="0 0 24 22" xmlns="http://www.w3.org/2000/svg">
    <path
        d="M11.7797 20.7919L11.7808 20.7925C11.8797 20.8428 11.9891 20.869 12.1 20.869C12.2109 20.869 12.3203 20.8428 12.4192 20.7925L12.4203 20.7919C14.2737 19.8356 16.9785 18.1858 19.2486 15.9558C21.5157 13.7288 23.4 10.8787 23.4 7.55909C23.4 4.01097 20.8008 0.8 16.8932 0.8C14.6921 0.8 13.1955 1.87401 12.1 3.33268C11.0045 1.87401 9.5079 0.8 7.30682 0.8C3.39919 0.8 0.8 4.01097 0.8 7.55909C0.8 10.8787 2.68426 13.7288 4.95139 15.9558L5.09155 15.8132L4.95139 15.9558C7.22146 18.1858 9.92629 19.8356 11.7797 20.7919ZM7.30682 2.20909C8.35108 2.20909 9.14661 2.46862 9.80256 2.92454C10.4625 3.38324 10.9946 4.05 11.4947 4.8867C11.5572 4.99148 11.6457 5.07825 11.7518 5.13853C11.8579 5.19887 11.9779 5.23059 12.1 5.23059C12.2221 5.23059 12.3421 5.19887 12.4482 5.13852C12.5543 5.07825 12.6428 4.99148 12.7053 4.8867C13.2054 4.05 13.7375 3.38324 14.3974 2.92454C15.0534 2.46862 15.8489 2.20909 16.8932 2.20909C20.0007 2.20909 21.9909 4.67549 21.9909 7.55909C21.9909 10.3373 20.3853 12.8562 18.2588 14.9452C16.2488 16.9196 13.8499 18.4328 12.1 19.3631C10.3501 18.4328 7.95117 16.9196 5.94122 14.9452C3.81465 12.8562 2.20909 10.3373 2.20909 7.55909C2.20909 4.67549 4.19929 2.20909 7.30682 2.20909Z"
        stroke-width="0.4" />
</svg>