<svg width="27" height="27" viewBox="0 0 27 27" fill="none" xmlns="http://www.w3.org/2000/svg">
<path d="M15.9862 10.7385C14.9515 10.4286 13.7883 10.647 13.0018 11.4961C12.826 11.6861 12.6775 11.9003 12.5546 12.1282C12.5334 12.1675 12.5121 12.2063 12.48 12.2656C12.4469 12.2153 12.4209 12.1817 12.401 12.1447C11.6467 10.7503 9.93751 10.2173 8.51857 10.8901C7.2367 11.498 6.36511 12.9725 6.72197 14.3944C6.8685 14.9777 7.18707 15.4628 7.56 15.9144C8.88299 17.5159 10.3691 19.1131 11.6968 20.7103C11.0407 19.7399 10.3894 18.7662 9.71016 17.8129C9.09333 16.9473 9.41426 15.7106 9.99847 15.2648C10.6966 14.7322 11.6963 14.854 12.2758 15.5453C12.3386 15.6206 12.3954 15.7012 12.4691 15.7978C12.5249 15.7286 12.5745 15.6647 12.626 15.6026C13.0642 15.0753 13.6205 14.8308 14.2983 14.9705C14.9095 15.0966 15.3212 15.478 15.5135 16.0797C15.696 16.6502 15.5542 17.2856 15.2512 17.7864C14.6377 18.8004 13.9036 19.7593 13.2329 20.7373C14.1414 19.6475 15.2087 18.5582 16.1115 17.4637C16.6744 16.781 17.2619 16.1129 17.7639 15.3866C18.6133 14.1565 18.341 12.5006 17.2813 11.4895C16.9093 11.1346 16.4612 10.8811 15.9862 10.739V10.7385ZM17.062 14.8379C16.767 15.3003 16.421 15.7296 16.0869 16.1897C15.7985 15.2586 15.2139 14.6777 14.2279 14.6128C13.4815 14.564 12.9115 14.9251 12.4771 15.6656C12.0366 14.89 11.3876 14.4953 10.4981 14.6379C9.62696 14.7777 9.11696 15.3439 8.85841 16.1972C8.73457 16.0191 8.62586 15.8594 8.51336 15.7016C8.2742 15.3652 7.99674 15.0502 7.79916 14.6905C7.02068 13.2757 7.86062 11.4715 9.45161 11.1009C10.5496 10.8451 11.658 11.2744 12.3126 12.2087C12.3604 12.2769 12.4077 12.3452 12.4719 12.4371C12.5348 12.349 12.583 12.2826 12.6298 12.2153C13.7316 10.6347 16.0032 10.6214 17.0317 12.2059C17.5881 13.063 17.6197 13.9628 17.062 14.8374V14.8379Z" fill="black"/>
<path d="M4.45322 9.91406V22.0004H20.5683V9.91406" stroke="black" fill="none" stroke-width="1.5"/>
<path d="M1 13.5108L12.5108 2L24.0216 13.5108" stroke="black" fill="none" stroke-width="1.5"/>
</svg>
