<svg width="24" height="24" viewBox="0 0 24 24" fill="none" xmlns="http://www.w3.org/2000/svg">
<path d="M15.0166 10.591C14.1178 10.3218 13.1072 10.5115 12.4239 11.2492C12.2712 11.4142 12.1422 11.6003 12.0355 11.7983C12.017 11.8324 11.9985 11.8662 11.9706 11.9176C11.9419 11.874 11.9193 11.8448 11.902 11.8127C11.2467 10.6013 9.76184 10.1382 8.52913 10.7227C7.41551 11.2508 6.65831 12.5318 6.96834 13.7671C7.09563 14.2738 7.37239 14.6953 7.69638 15.0876C8.84572 16.4788 10.1367 17.8664 11.2902 19.254C10.7202 18.411 10.1544 17.5651 9.56432 16.7369C9.02845 15.9849 9.30726 14.9106 9.8148 14.5232C10.4213 14.0606 11.2898 14.1663 11.7932 14.7669C11.8478 14.8323 11.8971 14.9023 11.9612 14.9863C12.0096 14.9262 12.0527 14.8706 12.0975 14.8167C12.4781 14.3586 12.9614 14.1462 13.5503 14.2676C14.0812 14.3771 14.4389 14.7084 14.606 15.2312C14.7645 15.7268 14.6413 16.2788 14.3781 16.7139C13.8451 17.5947 13.2074 18.4279 12.6247 19.2775C13.414 18.3307 14.3412 17.3844 15.1254 16.4336C15.6145 15.8404 16.1249 15.26 16.561 14.629C17.2989 13.5604 17.0624 12.1218 16.1418 11.2434C15.8186 10.9351 15.4293 10.7149 15.0166 10.5914V10.591ZM15.9512 14.1523C15.695 14.5541 15.3944 14.927 15.1041 15.3267C14.8536 14.5179 14.3457 14.0132 13.4891 13.9568C12.8407 13.9144 12.3455 14.2281 11.9681 14.8714C11.5854 14.1976 11.0216 13.8547 10.2488 13.9786C9.49205 14.1001 9.04898 14.592 8.82437 15.3333C8.71679 15.1785 8.62234 15.0398 8.52461 14.9027C8.31683 14.6105 8.07579 14.3368 7.90415 14.0243C7.22784 12.7952 7.95754 11.2278 9.33971 10.9059C10.2936 10.6836 11.2565 11.0565 11.8252 11.8683C11.8667 11.9275 11.9078 11.9868 11.9636 12.0667C12.0182 11.9901 12.0601 11.9325 12.1008 11.874C13.0579 10.5008 15.0314 10.4893 15.9249 11.8658C16.4082 12.6104 16.4358 13.3921 15.9512 14.1519V14.1523Z" fill="#A04A4A"/>
<path d="M5 9.87451V20.3745H19V9.87451" fill="none" stroke="#A04A4A" stroke-width="1.5"/>
<path d="M2 13L12 3L22 13" stroke="#A04A4A" fill="none" stroke-width="1.5"/>
</svg>
