<svg width="24" height="22" viewBox="0 0 24 22" fill="none" xmlns="http://www.w3.org/2000/svg">
<path d="M12.0085 21.0332L12.009 21.0335C12.0951 21.0772 12.1903 21.1 12.2868 21.1C12.3834 21.1 12.4785 21.0772 12.5646 21.0335L12.5651 21.0332C14.4444 20.0635 17.185 18.3914 19.4833 16.1338C21.7801 13.8776 23.6736 11.0046 23.6736 7.66949C23.6736 4.10979 21.0684 0.9 17.1607 0.9C14.9084 0.9 13.3946 2.02364 12.2868 3.54582C11.1791 2.02364 9.6652 0.9 7.41297 0.9C3.5052 0.9 0.9 4.10979 0.9 7.66949C0.9 11.0046 2.79353 13.8776 5.09033 16.1338C7.38861 18.3914 10.1292 20.0635 12.0085 21.0332ZM7.41297 2.12607C8.49357 2.12607 9.32358 2.39516 10.0097 2.87206C10.6978 3.35031 11.2479 4.04219 11.76 4.89893C11.8143 4.99022 11.8915 5.06582 11.9838 5.11832C12.0762 5.17082 12.1806 5.19843 12.2868 5.19843C12.3931 5.19843 12.4975 5.17082 12.5898 5.11832C12.6822 5.06582 12.7593 4.99022 12.8136 4.89893C13.3258 4.04219 13.8758 3.35031 14.5639 2.87206C15.2501 2.39516 16.0801 2.12607 17.1607 2.12607C20.387 2.12607 22.4476 4.69013 22.4476 7.66949C22.4476 10.535 20.7923 13.1214 18.6217 15.2536C16.5498 17.2889 14.0755 18.8427 12.2868 19.7891C10.4982 18.8427 8.02382 17.2889 5.95195 15.2536C3.78135 13.1214 2.12607 10.535 2.12607 7.66949C2.12607 4.69013 4.18666 2.12607 7.41297 2.12607Z" fill="#A04A4A" stroke="#A04A4A" stroke-width="0.2"/>
</svg>
