<svg width="38" height="46" viewBox="0 0 38 46" fill="none" xmlns="http://www.w3.org/2000/svg">
<path d="M28 1.9H27.9V2V7C27.9 8.60177 26.6018 9.9 25 9.9H13C11.3982 9.9 10.1 8.60177 10.1 7V2V1.9H10H5C3.28777 1.9 1.9 3.28777 1.9 5V5.04915V5.09855V5.14819V5.19809V5.24822V5.29861V5.34923V5.4001V5.45121V5.50256V5.55416V5.60599V5.65805V5.71036V5.7629V5.81567V5.86868V5.92192V5.9754V6.0291V6.08303V6.1372V6.19159V6.24621V6.30105V6.35612V6.41142V6.46693V6.52267V6.57863V6.63481V6.69121V6.74783V6.80467V6.86172V6.91899V6.97647V7.03416V7.09207V7.15019V7.20852V7.26706V7.3258V7.38476V7.44392V7.50329V7.56286V7.62263V7.68261V7.74279V7.80317V7.86375V7.92453V7.98551V8.04668V8.10805V8.16962V8.23137V8.29333V8.35547V8.4178V8.48033V8.54304V8.60594V8.66903V8.7323V8.79576V8.85941V8.92323V8.98724V9.05143V9.11581V9.18036V9.24508V9.30999V9.37507V9.44033V9.50576V9.57137V9.63715V9.70309V9.76921V9.8355V9.90196V9.96859V10.0354V10.1023V10.1695V10.2367V10.3042V10.3718V10.4396V10.5075V10.5756V10.6438V10.7123V10.7808V10.8495V10.9184V10.9874V11.0566V11.1259V11.1954V11.265V11.3348V11.4047V11.4748V11.545V11.6154V11.6859V11.7565V11.8273V11.8982V11.9693V12.0405V12.1118V12.1833V12.2549V12.3266V12.3985V12.4705V12.5427V12.6149V12.6873V12.7599V12.8325V12.9053V12.9782V13.0513V13.1244V13.1977V13.2711V13.3446V13.4183V13.492V13.5659V13.6399V13.714V13.7883V13.8626V13.9371V14.0116V14.0863V14.1611V14.236V14.311V14.3861V14.4613V14.5367V14.6121V14.6876V14.7633V14.839V14.9148V14.9908V15.0668V15.1429V15.2192V15.2955V15.3719V15.4484V15.525V15.6017V15.6785V15.7554V15.8323V15.9094V15.9865V16.0638V16.1411V16.2185V16.2959V16.3735V16.4511V16.5289V16.6067V16.6845V16.7625V16.8405V16.9186V16.9968V17.0751V17.1534V17.2318V17.3102V17.3888V17.4674V17.5461V17.6248V17.7036V17.7825V17.8614V17.9404V18.0194V18.0985V18.1777V18.2569V18.3362V18.4156V18.495V18.5744V18.6539V18.7335V18.8131V18.8928V18.9725V19.0523V19.1321V19.2119V19.2918V19.3718V19.4518V19.5318V19.6119V19.692V19.7722V19.8523V19.9326V20.0129V20.0932V20.1735V20.2539V20.3343V20.4147V20.4952V20.5757V20.6562V20.7368V20.8174V20.898V20.9786V21.0593V21.14V21.2207V21.3014V21.3822V21.4629V21.5437V21.6245V21.7054V21.7862V21.8671V21.9479V22.0288V22.1097V22.1906V22.2715V22.3524V22.4334V22.5143V22.5952V22.6762V22.7571V22.8381V22.919V23V23.081V23.1619V23.2429V23.3238V23.4048V23.4857V23.5666V23.6476V23.7285V23.8094V23.8903V23.9712V24.0521V24.1329V24.2138V24.2946V24.3755V24.4563V24.5371V24.6178V24.6986V24.7793V24.86V24.9407V25.0214V25.102V25.1826V25.2632V25.3438V25.4243V25.5048V25.5853V25.6657V25.7461V25.8265V25.9068V25.9871V26.0674V26.1477V26.2278V26.308V26.3881V26.4682V26.5482V26.6282V26.7082V26.7881V26.8679V26.9477V27.0275V27.1072V27.1869V27.2665V27.3461V27.4256V27.505V27.5844V27.6638V27.7431V27.8223V27.9015V27.9806V28.0596V28.1386V28.2175V28.2964V28.3752V28.4539V28.5326V28.6112V28.6898V28.7682V28.8466V28.9249V29.0032V29.0814V29.1595V29.2375V29.3155V29.3933V29.4711V29.5488V29.6265V29.704V29.7815V29.8589V29.9362V30.0135V30.0906V30.1677V30.2446V30.3215V30.3983V30.475V30.5516V30.6281V30.7045V30.7808V30.8571V30.9332V31.0092V31.0852V31.161V31.2367V31.3124V31.3879V31.4633V31.5387V31.6139V31.689V31.764V31.8389V31.9137V31.9884V32.0629V32.1374V32.2117V32.286V32.3601V32.4341V32.508V32.5817V32.6554V32.7289V32.8023V32.8756V32.9487V33.0218V33.0947V33.1675V33.2401V33.3127V33.3851V33.4573V33.5295V33.6015V33.6734V33.7451V33.8167V33.8882V33.9595V34.0307V34.1018V34.1727V34.2435V34.3141V34.3846V34.455V34.5252V34.5953V34.6652V34.735V34.8046V34.8741V34.9434V35.0126V35.0816V35.1505V35.2192V35.2877V35.3562V35.4244V35.4925V35.5604V35.6282V35.6958V35.7633V35.8305V35.8977V35.9646V36.0314V36.098V36.1645V36.2308V36.2969V36.3629V36.4286V36.4942V36.5597V36.6249V36.69V36.7549V36.8196V36.8842V36.9486V37.0128V37.0768V37.1406V37.2042V37.2677V37.331V37.3941V37.457V37.5197V37.5822V37.6445V37.7067V37.7686V37.8304V37.8919V37.9533V38.0145V38.0755V38.1362V38.1968V38.2572V38.3174V38.3774V38.4371V38.4967V38.5561V38.6152V38.6742V38.7329V38.7915V38.8498V38.9079V38.9658V39.0235V39.081V39.1383V39.1953V39.2522V39.3088V39.3652V39.4214V39.4773V39.5331V39.5886V39.6439V39.6989V39.7538V39.8084V39.8628V39.917V39.9709V40.0246V40.0781V40.1313V40.1843V40.2371V40.2896V40.3419V40.394V40.4458V40.4974V40.5488V40.5999V40.6508V40.7014V40.7518V40.8019V40.8518V40.9015V40.9509V41C1.9 42.7122 3.28777 44.1 5 44.1H33C34.7122 44.1 36.1 42.7122 36.1 41V5C36.1 3.28777 34.7122 1.9 33 1.9H28ZM26.1 2V1.9H26H12H11.9V2V7C11.9 7.60723 12.3928 8.1 13 8.1H25C25.6072 8.1 26.1 7.60723 26.1 7V2ZM5 0.1H33C35.7058 0.1 37.9 2.29423 37.9 5V41C37.9 43.7058 35.7058 45.9 33 45.9H32.9593H32.9185H32.8775H32.8364H32.795H32.7536H32.7119H32.6701H32.6281H32.586H32.5437H32.5013H32.4587H32.4159H32.373H32.33H32.2867H32.2434H32.1998H32.1562H32.1123H32.0683H32.0242H31.9799H31.9355H31.8909H31.8462H31.8013H31.7562H31.7111H31.6657H31.6203H31.5747H31.5289H31.483H31.437H31.3908H31.3444H31.298H31.2514H31.2046H31.1577H31.1107H31.0635H31.0163H30.9688H30.9212H30.8735H30.8257H30.7777H30.7296H30.6814H30.633H30.5845H30.5359H30.4871H30.4382H30.3892H30.3401H30.2908H30.2414H30.1919H30.1422H30.0924H30.0425H29.9925H29.9424H29.8921H29.8417H29.7912H29.7406H29.6898H29.6389H29.588H29.5368H29.4856H29.4343H29.3828H29.3313H29.2796H29.2278H29.1759H29.1239H29.0717H29.0195H28.9671H28.9147H28.8621H28.8094H28.7566H28.7037H28.6507H28.5976H28.5444H28.4911H28.4376H28.3841H28.3305H28.2768H28.2229H28.169H28.115H28.0608H28.0066H27.9523H27.8978H27.8433H27.7887H27.734H27.6792H27.6243H27.5693H27.5142H27.459H27.4037H27.3483H27.2929H27.2373H27.1817H27.126H27.0702H27.0143H26.9583H26.9022H26.846H26.7898H26.7335H26.6771H26.6206H26.564H26.5073H26.4506H26.3938H26.3369H26.2799H26.2229H26.1657H26.1085H26.0512H25.9939H25.9365H25.8789H25.8214H25.7637H25.706H25.6482H25.5903H25.5324H25.4744H25.4163H25.3581H25.2999H25.2416H25.1833H25.1249H25.0664H25.0079H24.9493H24.8906H24.8319H24.7731H24.7142H24.6553H24.5963H24.5373H24.4782H24.419H24.3598H24.3005H24.2412H24.1818H24.1224H24.0629H24.0034H23.9438H23.8841H23.8244H23.7647H23.7049H23.645H23.5851H23.5252H23.4652H23.4051H23.345H23.2849H23.2247H23.1645H23.1042H23.0439H22.9836H22.9232H22.8627H22.8022H22.7417H22.6812H22.6206H22.5599H22.4993H22.4386H22.3778H22.317H22.2562H22.1954H22.1345H22.0736H22.0126H21.9516H21.8906H21.8296H21.7685H21.7074H21.6463H21.5851H21.5239H21.4627H21.4015H21.3402H21.2789H21.2176H21.1563H21.0949H21.0336H20.9722H20.9107H20.8493H20.7878H20.7264H20.6649H20.6034H20.5418H20.4803H20.4187H20.3571H20.2955H20.2339H20.1723H20.1107H20.0491H19.9874H19.9257H19.8641H19.8024H19.7407H19.679H19.6173H19.5556H19.4939H19.4321H19.3704H19.3087H19.247H19.1852H19.1235H19.0617H19H18.9383H18.8765H18.8148H18.753H18.6913H18.6296H18.5679H18.5061H18.4444H18.3827H18.321H18.2593H18.1976H18.1359H18.0743H18.0126H17.9509H17.8893H17.8277H17.7661H17.7045H17.6429H17.5813H17.5197H17.4582H17.3966H17.3351H17.2736H17.2122H17.1507H17.0893H17.0278H16.9664H16.9051H16.8437H16.7824H16.7211H16.6598H16.5985H16.5373H16.4761H16.4149H16.3537H16.2926H16.2315H16.1704H16.1094H16.0484H15.9874H15.9264H15.8655H15.8046H15.7438H15.683H15.6222H15.5614H15.5007H15.4401H15.3794H15.3188H15.2583H15.1978H15.1373H15.0768H15.0164H14.9561H14.8958H14.8355H14.7753H14.7151H14.655H14.5949H14.5348H14.4748H14.4149H14.355H14.2951H14.2353H14.1756H14.1159H14.0562H13.9966H13.9371H13.8776H13.8182H13.7588H13.6995H13.6402H13.581H13.5218H13.4627H13.4037H13.3447H13.2858H13.2269H13.1681H13.1094H13.0507H12.9921H12.9336H12.8751H12.8167H12.7584H12.7001H12.6419H12.5837H12.5256H12.4676H12.4097H12.3518H12.294H12.2363H12.1786H12.1211H12.0635H12.0061H11.9488H11.8915H11.8343H11.7771H11.7201H11.6631H11.6062H11.5494H11.4927H11.436H11.3794H11.3229H11.2665H11.2102H11.154H11.0978H11.0417H10.9857H10.9298H10.874H10.8183H10.7627H10.7071H10.6517H10.5963H10.541H10.4858H10.4307H10.3757H10.3208H10.266H10.2113H10.1567H10.1022H10.0477H9.99341H9.93918H9.88505H9.83101H9.77708H9.72325H9.66951H9.61589H9.56236H9.50893H9.45562H9.4024H9.34929H9.29629H9.24339H9.1906H9.13792H9.08534H9.03288H8.98052H8.92828H8.87615H8.82412H8.77221H8.72042H8.66874H8.61717H8.56571H8.51438H8.46315H8.41205H8.36106H8.31019H8.25944H8.20881H8.1583H8.10791H8.05764H8.00749H7.95747H7.90757H7.85779H7.80814H7.75862H7.70921H7.65994H7.61079H7.56177H7.51288H7.46412H7.41549H7.36699H7.31862H7.27038H7.22227H7.1743H7.12646H7.07875H7.03118H6.98375H6.93645H6.88929H6.84227H6.79538H6.74863H6.70202H6.65556H6.60923H6.56305H6.517H6.4711H6.42534H6.37973H6.33426H6.28894H6.24376H6.19873H6.15385H6.10911H6.06453H6.02009H5.9758H5.93166H5.88767H5.84384H5.80016H5.75663H5.71325H5.67003H5.62696H5.58405H5.5413H5.4987H5.45626H5.41398H5.37185H5.32989H5.28809H5.24644H5.20496H5.16364H5.12249H5.08149H5.04066H5C2.29423 45.9 0.1 43.7058 0.1 41V40.9509V40.9015V40.8518V40.8019V40.7518V40.7014V40.6508V40.5999V40.5488V40.4974V40.4458V40.394V40.3419V40.2896V40.2371V40.1843V40.1313V40.0781V40.0246V39.9709V39.917V39.8628V39.8084V39.7538V39.6989V39.6439V39.5886V39.5331V39.4773V39.4214V39.3652V39.3088V39.2522V39.1953V39.1383V39.081V39.0235V38.9658V38.9079V38.8498V38.7915V38.7329V38.6742V38.6152V38.5561V38.4967V38.4371V38.3774V38.3174V38.2572V38.1968V38.1362V38.0755V38.0145V37.9533V37.8919V37.8304V37.7686V37.7067V37.6445V37.5822V37.5197V37.457V37.3941V37.331V37.2677V37.2042V37.1406V37.0768V37.0128V36.9486V36.8842V36.8196V36.7549V36.69V36.6249V36.5597V36.4942V36.4286V36.3629V36.2969V36.2308V36.1645V36.098V36.0314V35.9646V35.8977V35.8305V35.7633V35.6958V35.6282V35.5604V35.4925V35.4244V35.3562V35.2877V35.2192V35.1505V35.0816V35.0126V34.9434V34.8741V34.8046V34.735V34.6652V34.5953V34.5252V34.455V34.3846V34.3141V34.2435V34.1727V34.1018V34.0307V33.9595V33.8882V33.8167V33.7451V33.6734V33.6015V33.5295V33.4573V33.3851V33.3127V33.2401V33.1675V33.0947V33.0218V32.9487V32.8756V32.8023V32.7289V32.6554V32.5817V32.508V32.4341V32.3601V32.286V32.2117V32.1374V32.0629V31.9884V31.9137V31.8389V31.764V31.689V31.6139V31.5387V31.4633V31.3879V31.3124V31.2367V31.161V31.0852V31.0092V30.9332V30.8571V30.7808V30.7045V30.6281V30.5516V30.475V30.3983V30.3215V30.2446V30.1677V30.0906V30.0135V29.9362V29.8589V29.7815V29.704V29.6265V29.5488V29.4711V29.3933V29.3155V29.2375V29.1595V29.0814V29.0032V28.9249V28.8466V28.7682V28.6898V28.6112V28.5326V28.4539V28.3752V28.2964V28.2175V28.1386V28.0596V27.9806V27.9015V27.8223V27.7431V27.6638V27.5844V27.505V27.4256V27.3461V27.2665V27.1869V27.1072V27.0275V26.9477V26.8679V26.7881V26.7082V26.6282V26.5482V26.4682V26.3881V26.308V26.2278V26.1477V26.0674V25.9871V25.9068V25.8265V25.7461V25.6657V25.5853V25.5048V25.4243V25.3438V25.2632V25.1826V25.102V25.0214V24.9407V24.86V24.7793V24.6986V24.6178V24.5371V24.4563V24.3755V24.2946V24.2138V24.1329V24.0521V23.9712V23.8903V23.8094V23.7285V23.6476V23.5666V23.4857V23.4048V23.3238V23.2429V23.1619V23.081V23V22.919V22.8381V22.7571V22.6762V22.5952V22.5143V22.4334V22.3524V22.2715V22.1906V22.1097V22.0288V21.9479V21.8671V21.7862V21.7054V21.6245V21.5437V21.4629V21.3822V21.3014V21.2207V21.14V21.0593V20.9786V20.898V20.8174V20.7368V20.6562V20.5757V20.4952V20.4147V20.3343V20.2539V20.1735V20.0932V20.0129V19.9326V19.8523V19.7722V19.692V19.6119V19.5318V19.4518V19.3718V19.2918V19.2119V19.1321V19.0523V18.9725V18.8928V18.8131V18.7335V18.6539V18.5744V18.495V18.4156V18.3362V18.2569V18.1777V18.0985V18.0194V17.9404V17.8614V17.7825V17.7036V17.6248V17.5461V17.4674V17.3888V17.3102V17.2318V17.1534V17.0751V16.9968V16.9186V16.8405V16.7625V16.6845V16.6067V16.5289V16.4511V16.3735V16.2959V16.2185V16.1411V16.0638V15.9865V15.9094V15.8323V15.7554V15.6785V15.6017V15.525V15.4484V15.3719V15.2955V15.2192V15.1429V15.0668V14.9908V14.9148V14.839V14.7633V14.6876V14.6121V14.5367V14.4613V14.3861V14.311V14.236V14.1611V14.0863V14.0116V13.9371V13.8626V13.7883V13.714V13.6399V13.5659V13.492V13.4183V13.3446V13.2711V13.1977V13.1244V13.0513V12.9782V12.9053V12.8325V12.7599V12.6873V12.6149V12.5427V12.4705V12.3985V12.3266V12.2549V12.1833V12.1118V12.0405V11.9693V11.8982V11.8273V11.7565V11.6859V11.6154V11.545V11.4748V11.4047V11.3348V11.265V11.1954V11.1259V11.0566V10.9874V10.9184V10.8495V10.7808V10.7123V10.6438V10.5756V10.5075V10.4396V10.3718V10.3042V10.2367V10.1695V10.1023V10.0354V9.96859V9.90196V9.8355V9.76921V9.70309V9.63715V9.57137V9.50576V9.44033V9.37507V9.30999V9.24508V9.18036V9.11581V9.05143V8.98724V8.92323V8.85941V8.79576V8.7323V8.66903V8.60594V8.54304V8.48033V8.4178V8.35547V8.29333V8.23137V8.16962V8.10805V8.04668V7.98551V7.92453V7.86375V7.80317V7.74279V7.68261V7.62263V7.56286V7.50329V7.44392V7.38476V7.3258V7.26706V7.20852V7.15019V7.09207V7.03416V6.97647V6.91899V6.86172V6.80467V6.74783V6.69121V6.63481V6.57863V6.52267V6.46693V6.41142V6.35612V6.30105V6.24621V6.19159V6.1372V6.08303V6.0291V5.9754V5.92192V5.86868V5.81567V5.7629V5.71036V5.65805V5.60599V5.55416V5.50256V5.45121V5.4001V5.34923V5.29861V5.24822V5.19809V5.14819V5.09855V5.04915V5C0.1 2.29423 2.29423 0.1 5 0.1Z" fill="#FDF1E6" stroke="#A04A4A" stroke-width="0.2"/>
<path d="M8.36379 21.6364L8.3637 21.6363L6.3637 19.6363C6.01275 19.2853 6.01275 18.7146 6.3637 18.3637C6.71465 18.0128 7.28533 18.0128 7.63628 18.3637L8.92928 19.6567L8.99999 19.7274L9.0707 19.6567L12.3637 16.3637C12.7146 16.0128 13.2853 16.0128 13.6363 16.3637C13.9872 16.7146 13.9872 17.2853 13.6363 17.6363L9.63628 21.6363L9.63619 21.6364C9.28526 21.9882 8.71472 21.9882 8.36379 21.6364Z" fill="#FDF1E6" stroke="#A04A4A" stroke-width="0.2"/>
<path d="M8.36379 29.6364L8.3637 29.6363L6.3637 27.6363C6.01275 27.2853 6.01275 26.7146 6.3637 26.3637C6.71465 26.0128 7.28533 26.0128 7.63628 26.3637L8.92928 27.6567L8.99999 27.7274L9.0707 27.6567L12.3637 24.3637C12.7146 24.0128 13.2853 24.0128 13.6363 24.3637C13.9872 24.7146 13.9872 25.2853 13.6363 25.6363L9.63628 29.6363L9.63619 29.6364C9.28526 29.9882 8.71472 29.9882 8.36379 29.6364Z" fill="#FDF1E6" stroke="#A04A4A" stroke-width="0.2"/>
<path d="M8.36379 37.6364L8.3637 37.6363L6.3637 35.6363C6.01275 35.2853 6.01275 34.7146 6.3637 34.3637C6.71465 34.0128 7.28533 34.0128 7.63628 34.3637L8.92928 35.6567L8.99999 35.7274L9.0707 35.6567L12.3637 32.3637C12.7146 32.0128 13.2853 32.0128 13.6363 32.3637C13.9872 32.7146 13.9872 33.2853 13.6363 33.6363L9.63628 37.6363L9.63619 37.6364C9.28526 37.9882 8.71472 37.9882 8.36379 37.6364Z" fill="#FDF1E6" stroke="#A04A4A" stroke-width="0.2"/>
<path d="M31 19.9H17C16.5032 19.9 16.1 19.4968 16.1 19C16.1 18.5032 16.5032 18.1 17 18.1H31C31.4968 18.1 31.9 18.5032 31.9 19C31.9 19.4968 31.4968 19.9 31 19.9Z" fill="#FDF1E6" stroke="#A04A4A" stroke-width="0.2"/>
<path d="M31 27.9H17C16.5032 27.9 16.1 27.4968 16.1 27C16.1 26.5032 16.5032 26.1 17 26.1H31C31.4968 26.1 31.9 26.5032 31.9 27C31.9 27.4968 31.4968 27.9 31 27.9Z" fill="#FDF1E6" stroke="#A04A4A" stroke-width="0.2"/>
<path d="M31 35.9H17C16.5032 35.9 16.1 35.4968 16.1 35C16.1 34.5032 16.5032 34.1 17 34.1H31C31.4968 34.1 31.9 34.5032 31.9 35C31.9 35.4968 31.4968 35.9 31 35.9Z" fill="#FDF1E6" stroke="#A04A4A" stroke-width="0.2"/>
</svg>
