<svg width="20" height="20" viewBox="0 0 20 20" fill="none" xmlns="http://www.w3.org/2000/svg">
<path d="M0.75 5.737C0.75 2.98276 2.98276 0.75 5.737 0.75H14.263C17.0172 0.75 19.25 2.98276 19.25 5.737V14.263C19.25 17.0172 17.0172 19.25 14.263 19.25H5.737C2.98276 19.25 0.75 17.0172 0.75 14.263V5.737Z" fill="none" stroke="black" stroke-width="1.5"/>
<path d="M9.69699 14.5459L15.1515 14.5459" stroke="black" stroke-width="1.5" stroke-linecap="round" fill="none"/>
<path d="M9.69699 10.3027L15.1515 10.3027" stroke="black" stroke-width="1.5" stroke-linecap="round" fill="none"/>
<path d="M9.69699 6.06055L15.1515 6.06055" stroke="black" stroke-width="1.5" stroke-linecap="round" fill="none"/>
<path d="M4.24243 13.9397L5.45455 15.4548L7.8788 12.7275" stroke="black" stroke-width="1.5" stroke-linecap="round" fill="none"/>
<path d="M4.24243 9.6965L5.45455 11.2116L7.8788 8.48438" stroke="black" stroke-width="1.5" stroke-linecap="round" fill="none"/>
<path d="M4.24243 5.45431L5.45455 6.96946L7.8788 4.24219" stroke="black" stroke-width="1.5" stroke-linecap="round" fill="none"/>
</svg>
