<svg width="50" height="50" viewBox="0 0 50 50" fill="none" xmlns="http://www.w3.org/2000/svg">
<path d="M49.375 26.9196H47.7124V22.7539C47.7124 22.536 47.5941 22.3535 47.425 22.2417C47.883 21.4017 48.3176 19.9371 47.5095 17.9709C46.7941 16.2311 45.3845 15.3485 44.252 14.639C43.461 14.1437 42.7777 13.7158 42.5653 13.1598C42.4728 12.9178 42.2406 12.7579 41.9815 12.7579C41.7224 12.7579 41.4899 12.9178 41.3977 13.1601C41.1853 13.7158 40.5023 14.1437 39.7113 14.6393C38.5788 15.3485 37.1692 16.2311 36.4539 17.9709C35.6457 19.9371 36.0803 21.4017 36.5383 22.2417C36.3692 22.3535 36.2509 22.536 36.2509 22.7539V26.9196H34.4791V19.3389C35.2002 18.5199 37.6215 15.2368 35.4901 10.0528C34.1342 6.75476 31.5204 5.11749 29.2139 3.6731C27.5345 2.62115 26.084 1.71295 25.5838 0.403137C25.4913 0.161133 25.2591 0.0012207 25 0.0012207C24.7409 0.0012207 24.5087 0.161133 24.4162 0.403137C23.916 1.71295 22.4655 2.62115 20.7861 3.6731C18.4796 5.11749 15.8658 6.75476 14.5099 10.0528C12.3842 15.2225 14.791 18.5032 15.5209 19.3336V26.9196H13.5205V22.7539C13.5205 22.536 13.4022 22.3535 13.2331 22.2417C13.6911 21.4017 14.1256 19.9371 13.3173 17.9709C12.6019 16.2311 11.1923 15.3485 10.0598 14.639C9.2688 14.1437 8.58582 13.7158 8.37341 13.1598C8.28094 12.9178 8.04871 12.7579 7.78961 12.7579C7.53052 12.7579 7.29828 12.9178 7.20581 13.1598C6.99341 13.7158 6.31042 14.1437 5.51941 14.639C4.3866 15.3485 2.97699 16.2311 2.26196 17.9709C1.45363 19.9371 1.88808 21.4017 2.34608 22.2417C2.17705 22.3535 2.05872 22.536 2.05872 22.7539V26.9196H0.625C0.279846 26.9196 0 27.1994 0 27.5446V49.3805C0 49.7256 0.279846 50.0055 0.625 50.0055H49.375C49.7202 50.0055 50 49.7256 50 49.3805V27.5446C50 27.1994 49.7202 26.9196 49.375 26.9196ZM37.6099 18.4464C38.1726 17.0776 39.292 16.3766 40.3748 15.6985C40.9717 15.3247 41.5479 14.9637 41.9815 14.5078C42.4152 14.9637 42.9913 15.3244 43.5886 15.6985C44.671 16.3766 45.7907 17.0776 46.3535 18.4464C47.2506 20.629 46.178 21.9275 45.9927 22.1289H37.9704C37.7847 21.9268 36.713 20.6281 37.6099 18.4464ZM37.5009 23.3789H46.4624V26.9196H37.5009V23.3789ZM28.8986 48.7555H21.1017V38.66C21.1017 36.8048 21.9202 35.1254 23.2379 34.277C23.9359 33.8278 24.516 33.3496 25 32.8241C25.484 33.3496 26.0641 33.8278 26.7621 34.277C28.0798 35.1254 28.8986 36.8051 28.8986 38.66V48.7555ZM27.439 33.226C26.7087 32.756 26.1334 32.2574 25.6802 31.7014L25.4843 31.4612C25.2469 31.1707 24.7531 31.1707 24.5157 31.4612L24.3198 31.7017C23.8666 32.2574 23.2913 32.756 22.561 33.226C20.8899 34.3021 19.8517 36.3843 19.8517 38.66V48.7555H16.7709V19.7125H33.2291V48.7555H30.1486V38.66C30.1486 36.3846 29.1104 34.3024 27.439 33.226ZM15.6659 10.5283C16.8692 7.60132 19.3027 6.07727 21.4496 4.73267C22.8397 3.862 24.1699 3.02887 25 1.90491C25.8301 3.02887 27.1603 3.862 28.5504 4.73267C30.6973 6.07727 33.1308 7.60132 34.3341 10.5283C36.1627 14.9759 34.1931 17.753 33.5858 18.4625H16.4188C15.8109 17.7536 13.837 14.9762 15.6659 10.5283ZM3.41797 18.4464C3.98071 17.0776 5.1001 16.3763 6.18286 15.6985C6.77979 15.3244 7.35596 14.9637 7.78961 14.5078C8.22327 14.9637 8.79944 15.3244 9.39636 15.6985C10.4791 16.3763 11.5985 17.0776 12.1613 18.4464C13.0585 20.629 11.9861 21.9276 11.801 22.1289H3.77819C3.59253 21.9268 2.5211 20.6281 3.41797 18.4464ZM3.30872 23.3789H12.2705V26.9196H3.30872V23.3789ZM1.25 28.1696H15.5209V48.7555H1.25V28.1696ZM48.75 48.7555H34.4791V28.1696H48.75V48.7555Z" fill="#FDF1E6"/>
<path d="M9.56964 40.1926C9.15948 39.9771 8.83936 39.7519 8.59094 39.5035L8.47467 39.3872C8.23053 39.1431 7.83502 39.1431 7.59088 39.3872L7.47491 39.5032C7.22589 39.7519 6.90576 39.9771 6.49561 40.1926C5.40247 40.7666 4.72314 41.8884 4.72314 43.1207V46.3626C4.72314 46.7078 5.00299 46.9876 5.34814 46.9876H10.7171C11.0623 46.9876 11.3421 46.7078 11.3421 46.3626V43.1207C11.3421 41.8884 10.6628 40.7663 9.56964 40.1926ZM10.0921 45.7376H5.97314V43.1207C5.97314 42.3544 6.39612 41.6565 7.07666 41.2991C7.44379 41.1066 7.75964 40.9024 8.03278 40.6805C8.3056 40.9021 8.62146 41.1066 8.98859 41.2991C9.66943 41.6565 10.0921 42.3544 10.0921 43.1207V45.7376Z" fill="#FDF1E6"/>
<path d="M9.56964 30.9469C9.15948 30.7314 8.83936 30.5062 8.59033 30.2569L8.47406 30.1409C8.23053 29.8974 7.83502 29.8974 7.59149 30.1409L7.47461 30.2575C7.22589 30.5062 6.90576 30.7314 6.49561 30.9469C5.40247 31.5209 4.72314 32.6427 4.72314 33.875V37.1169C4.72314 37.4621 5.00299 37.7419 5.34814 37.7419H10.7171C11.0623 37.7419 11.3421 37.4621 11.3421 37.1169V33.875C11.3421 32.6427 10.6628 31.5206 9.56964 30.9469ZM10.0921 36.4919H5.97314V33.875C5.97314 33.1087 6.39612 32.4108 7.07666 32.0534C7.44379 31.8609 7.75995 31.6564 8.03278 31.4345C8.3056 31.6564 8.62146 31.8609 8.98859 32.0534C9.66943 32.4108 10.0921 33.1087 10.0921 33.875V36.4919Z" fill="#FDF1E6"/>
<path d="M39.2828 46.9876H44.6518C44.9969 46.9876 45.2768 46.7078 45.2768 46.3626V43.1207C45.2768 41.8884 44.5975 40.7666 43.5043 40.1926C43.0942 39.9771 42.774 39.7519 42.5253 39.5035L42.4091 39.3872C42.1649 39.1431 41.7694 39.1431 41.5253 39.3872L41.409 39.5035C41.1606 39.7519 40.8405 39.9771 40.4303 40.1926C39.3372 40.7666 38.6578 41.8884 38.6578 43.1207V46.3626C38.6578 46.7078 38.9377 46.9876 39.2828 46.9876ZM39.9078 43.1207C39.9078 42.3544 40.3308 41.6565 41.0114 41.2991C41.3785 41.1066 41.6943 40.9021 41.9672 40.6805C42.2403 40.9024 42.5562 41.1066 42.9233 41.2991C43.6038 41.6565 44.0268 42.3544 44.0268 43.1207V45.7376H39.9078V43.1207Z" fill="#FDF1E6"/>
<path d="M39.2828 37.7419H44.6518C44.9969 37.7419 45.2768 37.4621 45.2768 37.1169V33.875C45.2768 32.6427 44.5975 31.5209 43.5043 30.9469C43.0942 30.7314 42.774 30.5062 42.5247 30.2569L42.4084 30.1409C42.1649 29.8974 41.7694 29.8974 41.5259 30.1409L41.4087 30.2578C41.1606 30.5062 40.8405 30.7314 40.4303 30.9469C39.3372 31.5209 38.6578 32.6427 38.6578 33.875V37.1169C38.6578 37.4621 38.9377 37.7419 39.2828 37.7419ZM39.9078 33.875C39.9078 33.1087 40.3308 32.4108 41.0114 32.0534C41.3788 31.8609 41.6946 31.6564 41.9672 31.4345C42.2403 31.6564 42.5562 31.8609 42.9233 32.0534C43.6038 32.4108 44.0268 33.1087 44.0268 33.875V36.4919H39.9078V33.875Z" fill="#FDF1E6"/>
</svg>
